PathFileType	4	(X/Y/Z)	D:\TRACE\spot_10-12-23\spot_arm_body_motion_1_7-platform.trc
DataRate	CameraRate	NumFrames	NumMarkers	Units	OrigDataRate	OrigDataStartFrame	OrigNumFrames
100.00	100.00	      55	5	mm	100.00	876	      7000
Frame#	Time	Left_Front			Right_Front			Left_Aft			Right_Aft			Post			
		X1	Y1	Z1	X2	Y2	Z2	X3	Y3	Z3	X4	Y4	Z4	X5	Y5	Z5	

876	8.750	-832.52576	46.05526	-643.27478	735.01160	42.77073	-618.69342	-763.73175	-11.15247	494.04105	643.26190	-17.88553	595.95294	-44.59903	788.67871	-916.16351	
877	8.760	-832.18573	45.93631	-643.27405	735.26672	42.72488	-618.72095	-763.31049	-11.21074	494.05380	643.48456	-17.88700	595.96143	-44.28328	788.61536	-916.34229	
878	8.770	-831.86627	45.82449	-643.29498	735.56531	42.77339	-618.73230	-762.91205	-11.17454	494.04208	643.73785	-17.78893	595.97858	-62.68142	753.98596	-955.98352	
879	8.780	-831.65546	45.83270	-643.33862	735.79840	42.88237	-618.78583	-762.67255	-11.14737	494.02530	643.93622	-17.62749	595.75446	-43.78372	788.40698	-916.56024	
880	8.790	-831.42688	45.97274	-643.25836	735.97302	43.14214	-618.82666	-762.51135	-11.06121	493.93750	644.22443	-17.61743	596.00018	-43.56759	788.27985	-916.63916	
881	8.800	-831.08600	45.70519	-643.29022	736.30487	42.67544	-618.82886	-762.41870	-11.01153	493.92178	644.45630	-17.51661	596.01477	-43.48779	788.20215	-916.70477	
882	8.810	-830.80994	45.10473	-643.29700	736.64734	42.35834	-618.81250	-762.16669	-10.97356	493.91360	644.75354	-17.43739	595.95032	-43.25388	788.11902	-916.81598	
883	8.820	-830.46393	44.95690	-643.30377	737.03094	42.27422	-618.92529	-761.72595	-10.95585	493.97479	645.12482	-17.29629	595.94379	-42.86115	787.99115	-916.91870	
884	8.830	-829.80835	45.02449	-643.43494	737.42316	42.42828	-619.03662	-761.27600	-10.85499	494.01822	645.57776	-17.08637	595.92761	-42.05055	787.88049	-916.89380	
885	8.840	-829.66351	45.20700	-643.50055	737.83575	42.42253	-619.06976	-760.85632	-10.81119	494.08450	646.03290	-17.01367	595.95789	-41.46244	787.73798	-917.14398	
886	8.850	-829.32495	45.19525	-643.49438	738.21368	42.18062	-618.98334	-760.50970	-10.72854	494.10040	646.54700	-17.06856	595.96936	-41.47346	787.73602	-917.53400	
887	8.860	-828.99579	44.94605	-643.47955	738.53149	42.25004	-618.95148	-760.18756	-10.72924	494.11774	646.77771	-16.95097	595.97510	-41.30839	787.66809	-917.54590	
888	8.870	-828.56262	44.81403	-643.45508	738.89966	42.23277	-618.99133	-759.74341	-10.64253	494.02432	647.06110	-17.09173	595.76636	-40.81269	787.50873	-917.61243	
889	8.880	-828.03259	44.56863	-643.35577	739.25250	41.94106	-618.99731	-759.38855	-10.59870	493.97580	647.49213	-17.05513	595.70374	-40.37946	787.34296	-917.66296	
890	8.890	-827.63220	44.60820	-643.35126	739.82263	41.80968	-619.00800	-758.96667	-10.55986	493.91937	648.00305	-16.86593	595.73315	-39.99878	787.18280	-917.70844	
891	8.900	-827.12878	44.44859	-643.38190	740.25171	41.44086	-619.02124	-758.37274	-10.40502	493.92108	648.44318	-16.65424	595.77081	-55.93115	761.61609	-925.35144	
892	8.910	-826.63971	44.18762	-643.52942	740.73138	41.47729	-619.12744	-758.02667	-10.21457	494.00571	649.00848	-16.52568	595.70667	-38.76834	786.57056	-917.96448	
893	8.920	-826.26660	44.08684	-643.55072	741.12036	41.19923	-619.13409	-757.36798	-10.03793	493.96286	649.47992	-16.34474	595.68915	-38.34931	786.21881	-918.16870	
894	8.930	-825.84998	43.97762	-643.68213	741.71259	40.96733	-619.24481	-756.94464	-10.02505	493.81625	649.93964	-16.18358	595.70660	-38.09105	786.01672	-918.29846	
895	8.940	-825.22400	43.75465	-643.76038	742.18958	40.67940	-619.23944	-756.42352	-9.83241	493.79776	650.48206	-16.05914	595.57623	-37.49382	785.81927	-918.51489	
896	8.950	-824.68384	43.56892	-643.70752	742.73993	40.69845	-619.27643	-755.86090	-9.56660	493.76611	651.07904	-15.90330	595.59717	-36.84490	785.51105	-919.06738	
897	8.960	-824.15283	43.37540	-643.75110	743.19147	40.49159	-619.37335	-755.36029	-9.33736	493.76694	651.42572	-15.67736	595.57745	-36.58094	785.35339	-919.60754	
898	8.970	-823.66803	43.13443	-643.80530	743.61517	40.23714	-619.48285	-755.14526	-9.35736	493.88123	651.88232	-15.55695	595.53064	-36.00257	784.88507	-919.99243	
899	8.980	-823.21246	42.92628	-643.86224	744.10284	40.01387	-619.53198	-754.64685	-9.21706	493.71622	652.41821	-15.54146	595.54749	-35.53603	784.75073	-920.70496	
900	8.990	-822.55273	42.67442	-644.02045	744.80127	39.99119	-619.52319	-753.83221	-9.22645	493.65463	653.07593	-15.36086	595.59210	-34.92311	784.41791	-921.10321	
901	9.000	-822.00031	42.53262	-644.09662	745.50214	39.87704	-619.53784	-753.00208	-9.07221	493.60843	653.81738	-15.06155	595.61011	-34.11720	784.14520	-921.32910	
902	9.010	-821.42352	42.39476	-644.14557	746.21948	39.66494	-619.57434	-752.59814	-8.88883	493.44589	654.30194	-14.92423	595.39417	-33.71600	784.03479	-921.52747	
903	9.020	-820.78271	42.21427	-644.12402	746.67670	39.46495	-619.65594	-752.16254	-8.71986	493.39090	654.83313	-14.72073	595.40784	-32.89553	783.59766	-921.88287	
904	9.030	-820.23090	41.99482	-644.12708	747.23169	39.17488	-619.71063	-751.54193	-8.50161	493.36279	655.36536	-14.61714	595.38300	-32.11089	782.93652	-921.63116	
905	9.040	-819.59357	41.65360	-644.25513	747.85968	38.89827	-619.72168	-750.82501	-8.38948	493.39264	656.08606	-14.46229	595.37366	-31.56429	782.64673	-921.74780	
906	9.050	-819.02515	41.45776	-644.40405	748.62671	38.62351	-619.79376	-750.21521	-8.35961	493.35281	656.81323	-14.07865	595.43939	-31.12846	782.49371	-922.04431	
907	9.060	-818.29938	41.40602	-644.48114	749.33392	38.51776	-619.90289	-749.52655	-8.18075	493.29587	657.46283	-13.77356	595.36761	-30.63165	782.12299	-922.16052	
908	9.070	-817.63531	41.37409	-644.43695	749.88904	38.30158	-619.99628	-748.85883	-7.86757	493.26819	658.07275	-13.66188	595.11353	-29.93200	781.68207	-922.51697	
909	9.080	-816.87256	40.79176	-644.44000	750.47577	37.91615	-620.10797	-748.14502	-7.58890	493.31647	658.57916	-13.40135	594.88910	-29.23557	781.33728	-922.72699	
910	9.090	-816.28412	40.26751	-644.47540	751.20740	37.50016	-620.24658	-747.48840	-7.35765	493.25534	659.34985	-13.18661	595.09723	-28.72809	780.87134	-923.04755	
911	9.100	-815.55219	39.84723	-644.66528	751.95081	37.27973	-620.28021	-746.84344	-7.19712	493.06610	660.11829	-12.87190	595.07343	-27.49082	780.36304	-923.30469	
912	9.110	-814.76563	39.61160	-644.75446	752.66779	37.06905	-620.40381	-746.06451	-7.05300	492.94037	660.84009	-12.78533	594.82355	-27.11745	780.02533	-924.20074	
913	9.120	-814.06799	39.39750	-644.87250	753.33020	36.88194	-620.41827	-745.35938	-6.86970	492.85593	661.51062	-12.46006	594.75861	-26.47863	779.72418	-924.92041	
914	9.130	-813.36304	39.17239	-644.79089	754.13239	36.59286	-620.44879	-744.74902	-6.70662	492.75198	662.19019	-12.18085	594.91028	-25.82336	779.41180	-925.59442	
915	9.140	-812.69965	38.85910	-644.85040	754.87915	36.44528	-620.39777	-744.03241	-6.45599	492.74048	662.98883	-11.99926	594.85400	-25.03932	779.01910	-926.16272	
916	9.150	-811.90411	38.56098	-645.01495	755.58301	35.91017	-620.47162	-743.24487	-6.36024	492.81454	663.76111	-11.77107	594.78296	-24.19610	778.55072	-926.74921	
917	9.160	-811.27570	38.46296	-645.13885	756.39117	35.75039	-620.60760	-742.53754	-6.14499	492.68433	664.49091	-11.70589	594.46417	-23.32952	778.06793	-927.22412	
918	9.170	-810.34930	38.08790	-645.14307	757.02319	35.24875	-620.74829	-741.63208	-5.98379	492.61703	665.34637	-11.41896	594.46527	-22.69402	710.22662	-971.06720	
919	9.180	-809.57745	37.77396	-645.11774	757.93903	35.27731	-620.77655	-740.86340	-5.76529	492.55200	666.02106	-11.11676	594.59039	-21.53425	777.30939	-927.89038	
920	9.190	-808.84991	37.52003	-645.28485	758.71075	34.95717	-620.81433	-740.07794	-5.42393	492.47809	666.88861	-10.76357	594.66516	-20.96148	776.87964	-927.99158	
921	9.200	-808.15918	37.24946	-645.47992	759.39746	34.51815	-620.93933	-739.38666	-5.22893	492.45630	667.65497	-10.59741	594.29968	-20.26253	776.23822	-928.20313	
922	9.210	-807.28314	36.85114	-645.64215	760.21600	34.12133	-621.03680	-738.52722	-5.09113	492.31616	668.42987	-10.32473	594.26062	-19.63197	775.78656	-928.40314	
923	9.220	-806.24872	36.31568	-645.64063	761.14392	33.82116	-621.10724	-737.61261	-4.78674	492.34720	669.27124	-10.02501	594.36774	-18.63164	775.28015	-928.66315	
924	9.230	-805.53430	36.06110	-645.62939	761.95721	33.25343	-621.08252	-737.00958	-4.60202	492.30615	670.12567	-9.61649	594.33765	-17.91924	774.80707	-928.69781	
925	9.240	-804.70374	35.78497	-645.65845	762.79449	33.11708	-621.16040	-735.90253	-4.33889	492.31177	671.04150	-9.25713	594.21857	-17.06251	774.26208	-929.19983	
926	9.250	-803.94952	35.41914	-645.77557	763.60809	32.74522	-621.29474	-735.22473	-4.18497	492.04266	671.74371	-9.16234	594.18549	-16.14485	773.79633	-929.85492	
927	9.260	-803.19250	35.01155	-645.78217	764.45959	32.44301	-621.42712	-734.44189	-3.97204	491.95297	672.60052	-8.88285	594.14484	-15.32872	773.37457	-930.36212	
928	9.270	-802.12097	34.47555	-645.90930	765.25415	32.15785	-621.50635	-733.45813	-3.71720	491.89807	673.57452	-8.50977	594.03131	-14.35033	772.87604	-931.00238	
929	9.280	-801.25885	34.21685	-646.16528	766.06476	31.79714	-621.67450	-732.61023	-3.56534	491.86633	674.35663	-8.33613	593.91364	-13.44261	772.37427	-931.59869	
930	9.290	-800.73486	34.15916	-646.18182	767.06488	31.45667	-621.77161	-731.85638	-3.24211	491.83737	675.14673	-8.13068	593.90588	-12.33996	771.88446	-932.58478	
